<svg xmlns:mydata="http://www.w3.org/2000/svg" xmlns="http://www.w3.org/2000/svg" xmlns:xlink="http://www.w3.org/1999/xlink" mydata:contrastcolor="ffffff" mydata:template="SingleColorHex1" mydata:presentation="2.5" mydata:layouttype="undefined" mydata:specialfontid="undefined" mydata:id1="078" mydata:id2="077" mydata:companyname="Invo Flex" mydata:companytagline="" version="1.1" viewBox="90.25940704345703 168.77069091796875 369.481201171875 132.4586181640625" width="160.61702127659575" height="120"><g fill="#ffffff" fill-rule="none" stroke="none" stroke-width="1" stroke-linecap="butt" stroke-linejoin="miter" stroke-miterlimit="10" stroke-dasharray="" stroke-dashoffset="0" font-family="none" font-weight="none" font-size="none" text-anchor="none" style="mix-blend-mode: normal" width="100%" height="100%"><g data-paper-data="{&amp;quot;isGlobalGroup&amp;quot;:true,&amp;quot;bounds&amp;quot;:{&amp;quot;x&amp;quot;:0,&amp;quot;y&amp;quot;:0,&amp;quot;width&amp;quot;:550,&amp;quot;height&amp;quot;:470}}" fill="#ffffff" width="100%" height="100%"><path d="M260.42877,227.64573v-53.71843h17.80639v53.71843z" data-paper-data="{&amp;quot;glyphName&amp;quot;:&amp;quot;I&amp;quot;,&amp;quot;glyphIndex&amp;quot;:0,&amp;quot;firstGlyphOfWord&amp;quot;:true,&amp;quot;word&amp;quot;:1,&amp;quot;line&amp;quot;:1,&amp;quot;firstGlyphOfFirstLine&amp;quot;:true}" fill="#ffffff"/><path d="M323.16261,227.64573l-21.13573,-27.42034v27.42034h-16.19783v-53.71843h14.88853l21.21055,27.60738v-27.60738h16.0856v53.71843z" data-paper-data="{&amp;quot;glyphName&amp;quot;:&amp;quot;N&amp;quot;,&amp;quot;glyphIndex&amp;quot;:1,&amp;quot;word&amp;quot;:1,&amp;quot;line&amp;quot;:1}" fill="#ffffff"/><path d="M361.84287,227.64573l-20.38756,-53.71843h19.00345l11.11029,35.23869l11.03547,-35.23869h18.14306l-20.5372,53.71843z" data-paper-data="{&amp;quot;glyphName&amp;quot;:&amp;quot;V&amp;quot;,&amp;quot;glyphIndex&amp;quot;:2,&amp;quot;word&amp;quot;:1,&amp;quot;line&amp;quot;:1}" fill="#ffffff"/><path d="M430.22538,173.40358c5.61126,0 10.66762,1.17213 15.1691,3.51639c4.50147,2.34426 8.01786,5.59879 10.54916,9.76359c2.5313,4.1648 3.79695,8.85332 3.79695,14.06555c0,5.26211 -1.26565,9.98804 -3.79695,14.17777c-2.5313,4.18974 -6.04769,7.48168 -10.54916,9.87581c-4.50147,2.39414 -9.55784,3.5912 -15.1691,3.5912c-5.61126,0 -10.66762,-1.1846 -15.1691,-3.5538c-4.50147,-2.3692 -8.01163,-5.66113 -10.53046,-9.87581c-2.51883,-4.21468 -3.77825,-8.95307 -3.77825,-14.21518c0,-5.26211 1.25942,-9.9631 3.77825,-14.10296c2.51883,-4.13986 6.02898,-7.38192 10.53046,-9.72618c4.50147,-2.34426 9.55784,-3.51639 15.1691,-3.51639zM430.44983,188.17989c-2.04499,0 -3.94658,0.54866 -5.70478,1.64597c-1.75819,1.09731 -3.16101,2.60612 -4.20844,4.52641c-1.04743,1.9203 -1.57115,4.07751 -1.57115,6.47165c0,2.39414 0.52372,4.56382 1.57115,6.50906c1.04743,1.94524 2.45025,3.47898 4.20844,4.60123c1.75819,1.12225 3.65979,1.68338 5.70478,1.68338c2.04499,0 3.90918,-0.56113 5.59255,-1.68338c1.68338,-1.12225 3.01137,-2.65599 3.98399,-4.60123c0.97262,-1.94524 1.45893,-4.11492 1.45893,-6.50906c0,-2.39414 -0.48631,-4.55135 -1.45893,-6.47165c-0.97262,-1.9203 -2.30062,-3.4291 -3.98399,-4.52641c-1.68338,-1.09731 -3.54756,-1.64597 -5.59255,-1.64597z" data-paper-data="{&amp;quot;glyphName&amp;quot;:&amp;quot;O&amp;quot;,&amp;quot;glyphIndex&amp;quot;:3,&amp;quot;lastGlyphOfWord&amp;quot;:true,&amp;quot;word&amp;quot;:1,&amp;quot;line&amp;quot;:1,&amp;quot;lastGlyphOfFirstLine&amp;quot;:true}" fill="#ffffff"/><path d="M278.0238,256.85973v9.16716h23.50933v13.30717h-23.50933v17.26236h-17.59503v-53.08082h42.69383v13.34413z" data-paper-data="{&amp;quot;glyphName&amp;quot;:&amp;quot;F&amp;quot;,&amp;quot;glyphIndex&amp;quot;:4,&amp;quot;firstGlyphOfWord&amp;quot;:true,&amp;quot;word&amp;quot;:2,&amp;quot;line&amp;quot;:2,&amp;quot;firstGlyphOfSecondLine&amp;quot;:true}" fill="#ffffff"/><path d="M347.88644,281.99549v14.60092h-39.69972v-53.08082h17.59503v38.4799z" data-paper-data="{&amp;quot;glyphName&amp;quot;:&amp;quot;L&amp;quot;,&amp;quot;glyphIndex&amp;quot;:5,&amp;quot;word&amp;quot;:2,&amp;quot;line&amp;quot;:2}" fill="#ffffff"/><path d="M369.99113,256.85973v6.50573h24.80308v13.30717h-24.80308v6.61662h27.98202v13.30717h-45.57705v-53.08082h44.9117v13.34413z" data-paper-data="{&amp;quot;glyphName&amp;quot;:&amp;quot;E&amp;quot;,&amp;quot;glyphIndex&amp;quot;:6,&amp;quot;word&amp;quot;:2,&amp;quot;line&amp;quot;:2}" fill="#ffffff"/><path d="M459.74059,296.59642h-21.03272l-8.94537,-13.71378l-8.76055,13.71378h-20.51522l18.63004,-26.94702l-17.52111,-26.1338h20.44129l7.72555,12.49395l7.72555,-12.49395h20.66308l-17.18843,25.28362z" data-paper-data="{&amp;quot;glyphName&amp;quot;:&amp;quot;X&amp;quot;,&amp;quot;glyphIndex&amp;quot;:7,&amp;quot;lastGlyphOfWord&amp;quot;:true,&amp;quot;word&amp;quot;:2,&amp;quot;line&amp;quot;:2,&amp;quot;lastGlyphOfSecondLine&amp;quot;:true}" fill="#ffffff"/></g><g data-paper-data="{&amp;quot;isIcon&amp;quot;:&amp;quot;true&amp;quot;,&amp;quot;iconType&amp;quot;:&amp;quot;icon&amp;quot;,&amp;quot;rawIconId&amp;quot;:&amp;quot;312168&amp;quot;,&amp;quot;selectedEffects&amp;quot;:{&amp;quot;container&amp;quot;:&amp;quot;&amp;quot;,&amp;quot;transformation&amp;quot;:&amp;quot;&amp;quot;,&amp;quot;pattern&amp;quot;:&amp;quot;&amp;quot;},&amp;quot;isDetailed&amp;quot;:false,&amp;quot;fillRule&amp;quot;:&amp;quot;evenodd&amp;quot;,&amp;quot;bounds&amp;quot;:{&amp;quot;x&amp;quot;:90.25941082867496,&amp;quot;y&amp;quot;:168.77069274833542,&amp;quot;width&amp;quot;:139.25136575031232,&amp;quot;height&amp;quot;:132.45861450332916},&amp;quot;iconStyle&amp;quot;:&amp;quot;standalone&amp;quot;,&amp;quot;suitableAsStandaloneIcon&amp;quot;:true}" fill-rule="evenodd" fill="#ffffff" width="100%" height="100%"><path d="M205.73615,168.77069h-40.7565v23.77462h40.7565zM154.79053,178.95982h-40.7565v40.7565h40.7565zM164.97965,202.73444v47.54924h64.53112v-47.54924zM154.79053,229.90544h-64.53112v64.53112h64.53112zM164.97965,301.22931h40.7565v-40.7565h-40.7565z" data-paper-data="{&amp;quot;isPathIcon&amp;quot;:true}" fill="#ffffff"/></g></g></svg>