<svg width="100" height="96" viewBox="0 0 100 96" fill="none" xmlns="http://www.w3.org/2000/svg">
<path d="M50.0002 96C77.5379 96 99.8617 74.5097 99.8617 48C99.8617 21.4903 77.5379 0 50.0002 0C22.4624 0 0.138672 21.4903 0.138672 48C0.138672 74.5097 22.4624 96 50.0002 96Z" fill="#D7F3E6" fill-opacity="0.5"/>
<path d="M50.0004 15.8984C31.5947 15.8984 16.6572 30.2783 16.6572 47.9968C16.6572 65.7153 31.5947 80.0952 50.0004 80.0952C68.4061 80.0952 83.3436 65.7153 83.3436 47.9968C83.3436 30.2783 68.4061 15.8984 50.0004 15.8984Z" fill="#3ABC5E"/>
<path fill-rule="evenodd" clip-rule="evenodd" d="M69.4403 37.3261C70.195 38.0527 70.195 39.2307 69.4403 39.9561L48.1882 60.4159C47.4336 61.1424 46.2098 61.1424 45.4563 60.4159L35.7955 51.1158C35.0408 50.3892 35.0408 49.2124 35.7955 48.4858C36.5502 47.7593 37.7727 47.7593 38.5274 48.4858L46.8217 56.4704L66.7084 37.3261C67.4631 36.5996 68.6856 36.5996 69.4403 37.3261Z" fill="white"/>
</svg>
